<svg width="25" height="24" viewBox="0 0 25 24" fill="none" xmlns="http://www.w3.org/2000/svg">
<path d="M5.46875 12.7597C5.46875 11.4019 5.46875 10.723 5.74321 10.1263C6.01767 9.52956 6.53312 9.08775 7.564 8.20413L8.564 7.34699C10.4273 5.74986 11.359 4.95129 12.4688 4.95129C13.5785 4.95129 14.5102 5.74986 16.3735 7.34699L17.3735 8.20413C18.4044 9.08775 18.9198 9.52956 19.1943 10.1263C19.4687 10.723 19.4688 11.4019 19.4688 12.7597V17.0001C19.4688 18.8857 19.4687 19.8285 18.883 20.4143C18.2972 21.0001 17.3544 21.0001 15.4688 21.0001H9.46875C7.58313 21.0001 6.64032 21.0001 6.05454 20.4143C5.46875 19.8285 5.46875 18.8857 5.46875 17.0001V12.7597Z" stroke="#828282" stroke-width="2"/>
<path d="M14.9688 21V16C14.9688 15.4477 14.521 15 13.9688 15H10.9688C10.4165 15 9.96875 15.4477 9.96875 16V21" stroke="#828282" stroke-width="2" stroke-linecap="round" stroke-linejoin="round"/>
</svg>
