<svg width="54" height="47" viewBox="0 0 54 47" fill="none" xmlns="http://www.w3.org/2000/svg">
<path d="M34.6376 20.4471C34.1818 19.1713 33.1774 18.0439 31.7802 17.2399C30.3831 16.4358 28.6712 16 26.9102 16C25.1491 16 23.4372 16.4358 22.0401 17.2399C20.6429 18.0439 19.6386 19.1713 19.1828 20.4471" stroke="#828282" stroke-width="2" stroke-linecap="round"/>
<circle cx="26.9102" cy="8" r="4" stroke="#828282" stroke-width="2" stroke-linecap="round"/>
<path d="M1.72329 44V36.3H8.20229V44H7.39929V36.784L7.60829 37.004H2.31729L2.52629 36.784V44H1.72329ZM13.5944 44.055C13.0958 44.055 12.6448 43.9413 12.2414 43.714C11.8381 43.4793 11.5154 43.1457 11.2734 42.713C11.0388 42.273 10.9214 41.7377 10.9214 41.107C10.9214 40.4763 11.0388 39.9447 11.2734 39.512C11.5081 39.072 11.8271 38.7383 12.2304 38.511C12.6338 38.2837 13.0884 38.17 13.5944 38.17C14.1444 38.17 14.6358 38.2947 15.0684 38.544C15.5084 38.786 15.8531 39.1307 16.1024 39.578C16.3518 40.018 16.4764 40.5277 16.4764 41.107C16.4764 41.6937 16.3518 42.207 16.1024 42.647C15.8531 43.087 15.5084 43.4317 15.0684 43.681C14.6358 43.9303 14.1444 44.055 13.5944 44.055ZM10.6134 46.134V38.225H11.3614V39.963L11.2844 41.118L11.3944 42.284V46.134H10.6134ZM13.5394 43.362C13.9501 43.362 14.3168 43.2703 14.6394 43.087C14.9621 42.8963 15.2188 42.6323 15.4094 42.295C15.6001 41.9503 15.6954 41.5543 15.6954 41.107C15.6954 40.6597 15.6001 40.2673 15.4094 39.93C15.2188 39.5927 14.9621 39.3287 14.6394 39.138C14.3168 38.9473 13.9501 38.852 13.5394 38.852C13.1288 38.852 12.7584 38.9473 12.4284 39.138C12.1058 39.3287 11.8491 39.5927 11.6584 39.93C11.4751 40.2673 11.3834 40.6597 11.3834 41.107C11.3834 41.5543 11.4751 41.9503 11.6584 42.295C11.8491 42.6323 12.1058 42.8963 12.4284 43.087C12.7584 43.2703 13.1288 43.362 13.5394 43.362ZM20.5305 44.055C19.9731 44.055 19.4708 43.9303 19.0235 43.681C18.5835 43.4243 18.2351 43.076 17.9785 42.636C17.7218 42.1887 17.5935 41.679 17.5935 41.107C17.5935 40.5277 17.7218 40.018 17.9785 39.578C18.2351 39.138 18.5835 38.7933 19.0235 38.544C19.4635 38.2947 19.9658 38.17 20.5305 38.17C21.1025 38.17 21.6085 38.2947 22.0485 38.544C22.4958 38.7933 22.8441 39.138 23.0935 39.578C23.3501 40.018 23.4785 40.5277 23.4785 41.107C23.4785 41.679 23.3501 42.1887 23.0935 42.636C22.8441 43.076 22.4958 43.4243 22.0485 43.681C21.6011 43.9303 21.0951 44.055 20.5305 44.055ZM20.5305 43.362C20.9485 43.362 21.3188 43.2703 21.6415 43.087C21.9641 42.8963 22.2171 42.6323 22.4005 42.295C22.5911 41.9503 22.6865 41.5543 22.6865 41.107C22.6865 40.6523 22.5911 40.2563 22.4005 39.919C22.2171 39.5817 21.9641 39.3213 21.6415 39.138C21.3188 38.9473 20.9521 38.852 20.5415 38.852C20.1308 38.852 19.7641 38.9473 19.4415 39.138C19.1188 39.3213 18.8621 39.5817 18.6715 39.919C18.4808 40.2563 18.3855 40.6523 18.3855 41.107C18.3855 41.5543 18.4808 41.9503 18.6715 42.295C18.8621 42.6323 19.1188 42.8963 19.4415 43.087C19.7641 43.2703 20.1271 43.362 20.5305 43.362ZM28.3926 44.066C28.3926 44.066 28.378 44.066 28.3486 44.066C28.3193 44.066 28.29 44.066 28.2606 44.066C28.2386 44.066 28.2203 44.066 28.2056 44.066C27.0616 44.0587 26.1706 43.7983 25.5326 43.285C24.8946 42.7717 24.5756 42.042 24.5756 41.096C24.5756 40.1647 24.8946 39.446 25.5326 38.94C26.178 38.4267 27.0836 38.1663 28.2496 38.159C28.257 38.159 28.2716 38.159 28.2936 38.159C28.323 38.159 28.3486 38.159 28.3706 38.159C28.3926 38.159 28.4073 38.159 28.4146 38.159C29.588 38.1663 30.501 38.4267 31.1536 38.94C31.8063 39.446 32.1326 40.1647 32.1326 41.096C32.1326 42.0493 31.8026 42.7827 31.1426 43.296C30.49 43.8093 29.5733 44.066 28.3926 44.066ZM28.3816 43.384C29.0343 43.384 29.5806 43.296 30.0206 43.12C30.4606 42.9367 30.7943 42.6763 31.0216 42.339C31.249 42.0017 31.3626 41.5873 31.3626 41.096C31.3626 40.6193 31.249 40.216 31.0216 39.886C30.7943 39.5487 30.4606 39.292 30.0206 39.116C29.5806 38.94 29.0343 38.852 28.3816 38.852C28.3743 38.852 28.3523 38.852 28.3156 38.852C28.2863 38.852 28.268 38.852 28.2606 38.852C27.6226 38.852 27.0873 38.9437 26.6546 39.127C26.222 39.303 25.8956 39.556 25.6756 39.886C25.4556 40.216 25.3456 40.6193 25.3456 41.096C25.3456 41.58 25.4556 41.9907 25.6756 42.328C25.903 42.6653 26.233 42.9257 26.6656 43.109C27.0983 43.285 27.63 43.3767 28.2606 43.384C28.2753 43.384 28.2973 43.384 28.3266 43.384C28.356 43.384 28.3743 43.384 28.3816 43.384ZM27.9636 46.134V35.838H28.7226V46.134H27.9636ZM33.7843 44V38.225H34.5653V42.812L38.4263 38.225H39.1193V44H38.3383V39.402L34.4883 44H33.7843ZM40.3016 43.989L40.3566 43.318C40.4079 43.3253 40.4556 43.3363 40.4996 43.351C40.5509 43.3583 40.5949 43.362 40.6316 43.362C40.8662 43.362 41.0532 43.274 41.1926 43.098C41.3392 42.922 41.4492 42.6873 41.5226 42.394C41.5959 42.1007 41.6472 41.7707 41.6766 41.404C41.7059 41.03 41.7316 40.656 41.7536 40.282L41.8526 38.225H46.0876V44H45.3066V38.676L45.5046 38.907H42.3586L42.5456 38.665L42.4576 40.337C42.4356 40.8357 42.3952 41.3123 42.3366 41.767C42.2852 42.2217 42.2009 42.6213 42.0836 42.966C41.9736 43.3107 41.8196 43.582 41.6216 43.78C41.4236 43.9707 41.1706 44.066 40.8626 44.066C40.7746 44.066 40.6829 44.0587 40.5876 44.044C40.4996 44.0293 40.4042 44.011 40.3016 43.989ZM50.7938 40.26C51.5198 40.2673 52.0698 40.4287 52.4438 40.744C52.8251 41.0593 53.0158 41.514 53.0158 42.108C53.0158 42.724 52.8104 43.197 52.3998 43.527C51.9964 43.857 51.4098 44.0183 50.6398 44.011L48.3078 44V38.225H49.0888V40.238L50.7938 40.26ZM50.5958 43.417C51.1311 43.4243 51.5344 43.318 51.8058 43.098C52.0844 42.8707 52.2238 42.5407 52.2238 42.108C52.2238 41.6753 52.0881 41.36 51.8168 41.162C51.5454 40.9567 51.1384 40.8503 50.5958 40.843L49.0888 40.821V43.395L50.5958 43.417Z" fill="#828282"/>
</svg>
