<svg width="69" height="47" viewBox="0 0 69 47" fill="none" xmlns="http://www.w3.org/2000/svg">
<rect x="25.3125" y="6" width="18" height="15" rx="2" stroke="#828282" stroke-width="2"/>
<path d="M25.3125 10C25.3125 8.11438 25.3125 7.17157 25.8983 6.58579C26.4841 6 27.4269 6 29.3125 6H39.3125C41.1981 6 42.1409 6 42.7267 6.58579C43.3125 7.17157 43.3125 8.11438 43.3125 10H25.3125Z" fill="#828282"/>
<path d="M29.3125 3L29.3125 6" stroke="#828282" stroke-width="2" stroke-linecap="round"/>
<path d="M39.3125 3L39.3125 6" stroke="#828282" stroke-width="2" stroke-linecap="round"/>
<path d="M0.789699 44V36.3H3.6717C4.32437 36.3 4.88537 36.4063 5.3547 36.619C5.82403 36.8243 6.18337 37.125 6.4327 37.521C6.68937 37.9097 6.8177 38.3827 6.8177 38.94C6.8177 39.4827 6.68937 39.952 6.4327 40.348C6.18337 40.7367 5.82403 41.0373 5.3547 41.25C4.88537 41.4627 4.32437 41.569 3.6717 41.569H1.2407L1.6037 41.184V44H0.789699ZM1.6037 41.25L1.2407 40.854H3.6497C4.4197 40.854 5.0027 40.689 5.3987 40.359C5.80203 40.0217 6.0037 39.5487 6.0037 38.94C6.0037 38.324 5.80203 37.8473 5.3987 37.51C5.0027 37.1727 4.4197 37.004 3.6497 37.004H1.2407L1.6037 36.619V41.25ZM11.8264 44V42.724L11.7934 42.515V40.381C11.7934 39.8897 11.6541 39.512 11.3754 39.248C11.1041 38.984 10.6971 38.852 10.1544 38.852C9.78039 38.852 9.42473 38.9143 9.08739 39.039C8.75006 39.1637 8.46406 39.3287 8.22939 39.534L7.87739 38.951C8.17073 38.7017 8.52273 38.511 8.93339 38.379C9.34406 38.2397 9.77673 38.17 10.2314 38.17C10.9794 38.17 11.5551 38.357 11.9584 38.731C12.3691 39.0977 12.5744 39.6587 12.5744 40.414V44H11.8264ZM9.83539 44.055C9.40273 44.055 9.02506 43.9853 8.70239 43.846C8.38706 43.6993 8.14506 43.5013 7.97639 43.252C7.80773 42.9953 7.72339 42.702 7.72339 42.372C7.72339 42.0713 7.79306 41.8 7.93239 41.558C8.07906 41.3087 8.31373 41.1107 8.63639 40.964C8.96639 40.81 9.40639 40.733 9.95639 40.733H11.9474V41.316H9.97839C9.42106 41.316 9.03239 41.415 8.81239 41.613C8.59973 41.811 8.49339 42.0567 8.49339 42.35C8.49339 42.68 8.62173 42.944 8.87839 43.142C9.13506 43.34 9.49439 43.439 9.95639 43.439C10.3964 43.439 10.7741 43.34 11.0894 43.142C11.4121 42.9367 11.6467 42.6433 11.7934 42.262L11.9694 42.801C11.8227 43.1823 11.5661 43.4867 11.1994 43.714C10.8401 43.9413 10.3854 44.055 9.83539 44.055ZM17.0735 44.055C16.5015 44.055 15.9881 43.9303 15.5335 43.681C15.0861 43.4243 14.7341 43.076 14.4775 42.636C14.2208 42.1887 14.0925 41.679 14.0925 41.107C14.0925 40.5277 14.2208 40.018 14.4775 39.578C14.7341 39.138 15.0861 38.7933 15.5335 38.544C15.9881 38.2947 16.5015 38.17 17.0735 38.17C17.5648 38.17 18.0085 38.2653 18.4045 38.456C18.8005 38.6467 19.1121 38.9327 19.3395 39.314L18.7565 39.71C18.5585 39.4167 18.3128 39.2003 18.0195 39.061C17.7261 38.9217 17.4071 38.852 17.0625 38.852C16.6518 38.852 16.2815 38.9473 15.9515 39.138C15.6215 39.3213 15.3611 39.5817 15.1705 39.919C14.9798 40.2563 14.8845 40.6523 14.8845 41.107C14.8845 41.5617 14.9798 41.9577 15.1705 42.295C15.3611 42.6323 15.6215 42.8963 15.9515 43.087C16.2815 43.2703 16.6518 43.362 17.0625 43.362C17.4071 43.362 17.7261 43.2923 18.0195 43.153C18.3128 43.0137 18.5585 42.801 18.7565 42.515L19.3395 42.911C19.1121 43.285 18.8005 43.571 18.4045 43.769C18.0085 43.9597 17.5648 44.055 17.0735 44.055ZM20.8517 44V38.225H26.0437V44H25.2627V38.698L25.4607 38.907H21.4347L21.6327 38.698V44H20.8517ZM28.2638 44V38.225H29.0448V42.812L32.9058 38.225H33.5988V44H32.8178V39.402L28.9678 44H28.2638ZM38.2571 44.055C37.6851 44.055 37.1717 43.9303 36.7171 43.681C36.2697 43.4243 35.9177 43.076 35.6611 42.636C35.4044 42.1887 35.2761 41.679 35.2761 41.107C35.2761 40.5277 35.4044 40.018 35.6611 39.578C35.9177 39.138 36.2697 38.7933 36.7171 38.544C37.1717 38.2947 37.6851 38.17 38.2571 38.17C38.7484 38.17 39.1921 38.2653 39.5881 38.456C39.9841 38.6467 40.2957 38.9327 40.5231 39.314L39.9401 39.71C39.7421 39.4167 39.4964 39.2003 39.2031 39.061C38.9097 38.9217 38.5907 38.852 38.2461 38.852C37.8354 38.852 37.4651 38.9473 37.1351 39.138C36.8051 39.3213 36.5447 39.5817 36.3541 39.919C36.1634 40.2563 36.0681 40.6523 36.0681 41.107C36.0681 41.5617 36.1634 41.9577 36.3541 42.295C36.5447 42.6323 36.8051 42.8963 37.1351 43.087C37.4651 43.2703 37.8354 43.362 38.2461 43.362C38.5907 43.362 38.9097 43.2923 39.2031 43.153C39.4964 43.0137 39.7421 42.801 39.9401 42.515L40.5231 42.911C40.2957 43.285 39.9841 43.571 39.5881 43.769C39.1921 43.9597 38.7484 44.055 38.2571 44.055ZM45.6213 44V42.724L45.5883 42.515V40.381C45.5883 39.8897 45.449 39.512 45.1703 39.248C44.899 38.984 44.492 38.852 43.9493 38.852C43.5753 38.852 43.2196 38.9143 42.8823 39.039C42.545 39.1637 42.259 39.3287 42.0243 39.534L41.6723 38.951C41.9656 38.7017 42.3176 38.511 42.7283 38.379C43.139 38.2397 43.5716 38.17 44.0263 38.17C44.7743 38.17 45.35 38.357 45.7533 38.731C46.164 39.0977 46.3693 39.6587 46.3693 40.414V44H45.6213ZM43.6303 44.055C43.1976 44.055 42.82 43.9853 42.4973 43.846C42.182 43.6993 41.94 43.5013 41.7713 43.252C41.6026 42.9953 41.5183 42.702 41.5183 42.372C41.5183 42.0713 41.588 41.8 41.7273 41.558C41.874 41.3087 42.1086 41.1107 42.4313 40.964C42.7613 40.81 43.2013 40.733 43.7513 40.733H45.7423V41.316H43.7733C43.216 41.316 42.8273 41.415 42.6073 41.613C42.3946 41.811 42.2883 42.0567 42.2883 42.35C42.2883 42.68 42.4166 42.944 42.6733 43.142C42.93 43.34 43.2893 43.439 43.7513 43.439C44.1913 43.439 44.569 43.34 44.8843 43.142C45.207 42.9367 45.4416 42.6433 45.5883 42.262L45.7643 42.801C45.6176 43.1823 45.361 43.4867 44.9943 43.714C44.635 43.9413 44.1803 44.055 43.6303 44.055ZM48.4484 44V38.225H49.2294V40.777H52.8704V38.225H53.6514V44H52.8704V41.448H49.2294V44H48.4484ZM55.8713 44V38.225H56.6523V42.812L60.5133 38.225H61.2063V44H60.4253V39.402L56.5753 44H55.8713ZM65.9195 44.055C65.3182 44.055 64.7902 43.9303 64.3355 43.681C63.8808 43.4243 63.5252 43.076 63.2685 42.636C63.0118 42.1887 62.8835 41.679 62.8835 41.107C62.8835 40.535 63.0045 40.029 63.2465 39.589C63.4958 39.149 63.8332 38.8043 64.2585 38.555C64.6912 38.2983 65.1752 38.17 65.7105 38.17C66.2532 38.17 66.7335 38.2947 67.1515 38.544C67.5768 38.786 67.9105 39.1307 68.1525 39.578C68.3945 40.018 68.5155 40.5277 68.5155 41.107C68.5155 41.1437 68.5118 41.184 68.5045 41.228C68.5045 41.2647 68.5045 41.305 68.5045 41.349H63.4775V40.766H68.0865L67.7785 40.997C67.7785 40.579 67.6868 40.2087 67.5035 39.886C67.3275 39.556 67.0855 39.2993 66.7775 39.116C66.4695 38.9327 66.1138 38.841 65.7105 38.841C65.3145 38.841 64.9588 38.9327 64.6435 39.116C64.3282 39.2993 64.0825 39.556 63.9065 39.886C63.7305 40.216 63.6425 40.5937 63.6425 41.019V41.14C63.6425 41.58 63.7378 41.9687 63.9285 42.306C64.1265 42.636 64.3978 42.8963 64.7425 43.087C65.0945 43.2703 65.4942 43.362 65.9415 43.362C66.2935 43.362 66.6198 43.2997 66.9205 43.175C67.2285 43.0503 67.4925 42.8597 67.7125 42.603L68.1525 43.109C67.8958 43.417 67.5732 43.6517 67.1845 43.813C66.8032 43.9743 66.3815 44.055 65.9195 44.055Z" fill="#828282"/>
</svg>
