<svg width="25" height="47" viewBox="0 0 25 47" fill="none" xmlns="http://www.w3.org/2000/svg">
<path d="M19.4245 5.77772C20.0986 6.78661 20.0986 8.19108 20.0986 11C20.0986 13.8089 20.0986 15.2134 19.4245 16.2223C19.1327 16.659 18.7577 17.034 18.3209 17.3259C17.4396 17.9148 16.2563 17.9892 14.0986 17.9986V18L12.9931 20.2111C12.6245 20.9482 11.5727 20.9482 11.2042 20.2111L10.0986 18V17.9986C7.94093 17.9892 6.7577 17.9148 5.87635 17.3259C5.43959 17.034 5.06459 16.659 4.77275 16.2223C4.09863 15.2134 4.09863 13.8089 4.09863 11C4.09863 8.19108 4.09863 6.78661 4.77275 5.77772C5.06459 5.34096 5.43959 4.96596 5.87635 4.67412C6.88525 4 8.28971 4 11.0986 4H13.0986C15.9076 4 17.312 4 18.3209 4.67412C18.7577 4.96596 19.1327 5.34096 19.4245 5.77772Z" stroke="#828282" stroke-width="2" stroke-linecap="round" stroke-linejoin="round"/>
<circle cx="19.5986" cy="4.5" r="3.5" fill="#9C0A35"/>
<path d="M9.09863 9L15.0986 9" stroke="#828282" stroke-width="2" stroke-linecap="round" stroke-linejoin="round"/>
<path d="M9.09863 13H12.0986" stroke="#828282" stroke-width="2" stroke-linecap="round" stroke-linejoin="round"/>
<path d="M8.35293 40.744C7.91293 40.942 7.47293 41.0923 7.03293 41.195C6.60026 41.2977 6.18226 41.349 5.77893 41.349C4.87693 41.349 4.17293 41.1327 3.66693 40.7C3.16826 40.26 2.91893 39.6403 2.91893 38.841V36.3H3.72193V38.753C3.72193 39.347 3.90893 39.809 4.28293 40.139C4.66426 40.469 5.18859 40.634 5.85593 40.634C6.25193 40.634 6.66259 40.5827 7.08793 40.48C7.51326 40.37 7.93493 40.216 8.35293 40.018V40.744ZM8.20993 44V36.3H9.00193V44H8.20993ZM15.0128 44V42.724L14.9798 42.515V40.381C14.9798 39.8897 14.8405 39.512 14.5618 39.248C14.2905 38.984 13.8835 38.852 13.3408 38.852C12.9668 38.852 12.6112 38.9143 12.2738 39.039C11.9365 39.1637 11.6505 39.3287 11.4158 39.534L11.0638 38.951C11.3572 38.7017 11.7092 38.511 12.1198 38.379C12.5305 38.2397 12.9632 38.17 13.4178 38.17C14.1658 38.17 14.7415 38.357 15.1448 38.731C15.5555 39.0977 15.7608 39.6587 15.7608 40.414V44H15.0128ZM13.0218 44.055C12.5892 44.055 12.2115 43.9853 11.8888 43.846C11.5735 43.6993 11.3315 43.5013 11.1628 43.252C10.9942 42.9953 10.9098 42.702 10.9098 42.372C10.9098 42.0713 10.9795 41.8 11.1188 41.558C11.2655 41.3087 11.5002 41.1107 11.8228 40.964C12.1528 40.81 12.5928 40.733 13.1428 40.733H15.1338V41.316H13.1648C12.6075 41.316 12.2188 41.415 11.9988 41.613C11.7862 41.811 11.6798 42.0567 11.6798 42.35C11.6798 42.68 11.8082 42.944 12.0648 43.142C12.3215 43.34 12.6808 43.439 13.1428 43.439C13.5828 43.439 13.9605 43.34 14.2758 43.142C14.5985 42.9367 14.8332 42.6433 14.9798 42.262L15.1558 42.801C15.0092 43.1823 14.7525 43.4867 14.3858 43.714C14.0265 43.9413 13.5718 44.055 13.0218 44.055ZM18.9399 44V38.698L19.1379 38.907H16.7509V38.225H21.9099V38.907H19.5229L19.7209 38.698V44H18.9399Z" fill="#828282"/>
</svg>
