<svg width="333" height="53" viewBox="0 0 333 53" fill="none" xmlns="http://www.w3.org/2000/svg">
<g filter="url(#filter0_f_3338_4530)">
<rect x="12.0586" y="6" width="24" height="24" rx="12" fill="#B9B9C9"/>
</g>
<path fill-rule="evenodd" clip-rule="evenodd" d="M17.3331 16.1262C17.0586 16.7229 17.0586 17.4018 17.0586 18.7595V22.9999C17.0586 24.8856 17.0586 25.8284 17.6444 26.4142C18.1759 26.9457 19.0014 26.9949 20.5586 26.9995V22C20.5586 20.8954 21.454 20 22.5586 20H25.5586C26.6632 20 27.5586 20.8954 27.5586 22V26.9995C29.1157 26.9949 29.9413 26.9457 30.4728 26.4142C31.0586 25.8284 31.0586 24.8856 31.0586 22.9999V18.7595C31.0586 17.4018 31.0586 16.7229 30.7841 16.1262C30.5097 15.5294 29.9942 15.0876 28.9633 14.204L27.9633 13.3469C26.1 11.7497 25.1684 10.9512 24.0586 10.9512C22.9488 10.9512 22.0172 11.7497 20.1538 13.3469L19.1538 14.204C18.123 15.0876 17.6075 15.5294 17.3331 16.1262ZM25.5586 26.9999V22H22.5586V26.9999H25.5586Z" fill="#9C0A35"/>
<path d="M2.01971 50V42.3H7.24471L7.23371 43.51H3.08671L3.41671 43.169L3.42771 50H2.01971ZM5.77699 49.989L5.84299 48.834C5.89432 48.8413 5.94199 48.8487 5.98599 48.856C6.02999 48.8633 6.07032 48.867 6.10699 48.867C6.33432 48.867 6.51032 48.7973 6.63499 48.658C6.75965 48.5187 6.85132 48.3317 6.90999 48.097C6.97599 47.855 7.01999 47.5873 7.04199 47.294C7.07132 46.9933 7.09332 46.6927 7.10799 46.392L7.20699 44.126H11.959V50H10.584V44.918L10.903 45.292H8.10899L8.40599 44.907L8.32899 46.458C8.30699 46.9787 8.26299 47.4627 8.19699 47.91C8.13832 48.35 8.04299 48.735 7.91099 49.065C7.78632 49.395 7.61032 49.6517 7.38299 49.835C7.16299 50.0183 6.88065 50.11 6.53599 50.11C6.42599 50.11 6.30499 50.099 6.17299 50.077C6.04832 50.055 5.91632 50.0257 5.77699 49.989ZM17.3748 50V48.812L17.2978 48.559V46.48C17.2978 46.0767 17.1768 45.765 16.9348 45.545C16.6928 45.3177 16.3261 45.204 15.8348 45.204C15.5048 45.204 15.1784 45.2553 14.8558 45.358C14.5404 45.4607 14.2728 45.6037 14.0528 45.787L13.5138 44.786C13.8291 44.544 14.2031 44.3643 14.6358 44.247C15.0758 44.1223 15.5304 44.06 15.9998 44.06C16.8504 44.06 17.5068 44.2653 17.9688 44.676C18.4381 45.0793 18.6728 45.7063 18.6728 46.557V50H17.3748ZM15.5268 50.077C15.0868 50.077 14.7018 50.0037 14.3718 49.857C14.0418 49.703 13.7851 49.494 13.6018 49.23C13.4258 48.9587 13.3378 48.6543 13.3378 48.317C13.3378 47.987 13.4148 47.69 13.5688 47.426C13.7301 47.162 13.9904 46.953 14.3498 46.799C14.7091 46.645 15.1858 46.568 15.7798 46.568H17.4848V47.481H15.8788C15.4094 47.481 15.0941 47.558 14.9328 47.712C14.7714 47.8587 14.6908 48.042 14.6908 48.262C14.6908 48.5113 14.7898 48.7093 14.9878 48.856C15.1858 49.0027 15.4608 49.076 15.8128 49.076C16.1501 49.076 16.4508 48.999 16.7148 48.845C16.9861 48.691 17.1804 48.4637 17.2978 48.163L17.5288 48.988C17.3968 49.3327 17.1584 49.6003 16.8138 49.791C16.4764 49.9817 16.0474 50.077 15.5268 50.077ZM20.3742 50V44.126H23.2452C23.9566 44.126 24.5139 44.258 24.9172 44.522C25.3279 44.786 25.5332 45.16 25.5332 45.644C25.5332 46.1207 25.3426 46.4947 24.9612 46.766C24.5799 47.03 24.0739 47.162 23.4432 47.162L23.6082 46.821C24.3196 46.821 24.8476 46.953 25.1922 47.217C25.5442 47.4737 25.7202 47.8513 25.7202 48.35C25.7202 48.8707 25.5259 49.2777 25.1372 49.571C24.7486 49.857 24.1582 50 23.3662 50H20.3742ZM21.6832 48.999H23.2562C23.6302 48.999 23.9126 48.9403 24.1032 48.823C24.2939 48.6983 24.3892 48.5113 24.3892 48.262C24.3892 47.998 24.3012 47.8037 24.1252 47.679C23.9492 47.5543 23.6742 47.492 23.3002 47.492H21.6832V48.999ZM21.6832 46.579H23.1242C23.4762 46.579 23.7402 46.5167 23.9162 46.392C24.0996 46.26 24.1912 46.0767 24.1912 45.842C24.1912 45.6 24.0996 45.4203 23.9162 45.303C23.7402 45.1857 23.4762 45.127 23.1242 45.127H21.6832V46.579ZM27.1848 50V44.126H28.5598V46.513H31.5188V44.126H32.8938V50H31.5188V47.679H28.5598V50H27.1848ZM38.3005 50V48.812L38.2235 48.559V46.48C38.2235 46.0767 38.1025 45.765 37.8605 45.545C37.6185 45.3177 37.2519 45.204 36.7605 45.204C36.4305 45.204 36.1042 45.2553 35.7815 45.358C35.4662 45.4607 35.1985 45.6037 34.9785 45.787L34.4395 44.786C34.7549 44.544 35.1289 44.3643 35.5615 44.247C36.0015 44.1223 36.4562 44.06 36.9255 44.06C37.7762 44.06 38.4325 44.2653 38.8945 44.676C39.3639 45.0793 39.5985 45.7063 39.5985 46.557V50H38.3005ZM36.4525 50.077C36.0125 50.077 35.6275 50.0037 35.2975 49.857C34.9675 49.703 34.7109 49.494 34.5275 49.23C34.3515 48.9587 34.2635 48.6543 34.2635 48.317C34.2635 47.987 34.3405 47.69 34.4945 47.426C34.6559 47.162 34.9162 46.953 35.2755 46.799C35.6349 46.645 36.1115 46.568 36.7055 46.568H38.4105V47.481H36.8045C36.3352 47.481 36.0199 47.558 35.8585 47.712C35.6972 47.8587 35.6165 48.042 35.6165 48.262C35.6165 48.5113 35.7155 48.7093 35.9135 48.856C36.1115 49.0027 36.3865 49.076 36.7385 49.076C37.0759 49.076 37.3765 48.999 37.6405 48.845C37.9119 48.691 38.1062 48.4637 38.2235 48.163L38.4545 48.988C38.3225 49.3327 38.0842 49.6003 37.7395 49.791C37.4022 49.9817 36.9732 50.077 36.4525 50.077ZM45.029 50V47.998L45.227 48.229H43.467C42.6604 48.229 42.026 48.0603 41.564 47.723C41.1094 47.3783 40.882 46.8833 40.882 46.238C40.882 45.5487 41.124 45.0243 41.608 44.665C42.0994 44.3057 42.752 44.126 43.566 44.126H46.261V50H45.029ZM40.805 50L42.389 47.756H43.797L42.279 50H40.805ZM45.029 47.558V44.918L45.227 45.281H43.61C43.1847 45.281 42.8547 45.3617 42.62 45.523C42.3927 45.677 42.279 45.93 42.279 46.282C42.279 46.942 42.708 47.272 43.566 47.272H45.227L45.029 47.558Z" fill="#9C0A35"/>
<rect x="114.312" y="12" width="18" height="15" rx="2" stroke="#828282" stroke-width="2"/>
<path d="M114.312 16C114.312 14.1144 114.312 13.1716 114.898 12.5858C115.484 12 116.427 12 118.312 12H128.312C130.198 12 131.141 12 131.727 12.5858C132.312 13.1716 132.312 14.1144 132.312 16H114.312Z" fill="#828282"/>
<path d="M118.312 9L118.312 12" stroke="#828282" stroke-width="2" stroke-linecap="round"/>
<path d="M128.312 9L128.312 12" stroke="#828282" stroke-width="2" stroke-linecap="round"/>
<path d="M89.7897 50V42.3H92.6717C93.3244 42.3 93.8854 42.4063 94.3547 42.619C94.824 42.8243 95.1834 43.125 95.4327 43.521C95.6894 43.9097 95.8177 44.3827 95.8177 44.94C95.8177 45.4827 95.6894 45.952 95.4327 46.348C95.1834 46.7367 94.824 47.0373 94.3547 47.25C93.8854 47.4627 93.3244 47.569 92.6717 47.569H90.2407L90.6037 47.184V50H89.7897ZM90.6037 47.25L90.2407 46.854H92.6497C93.4197 46.854 94.0027 46.689 94.3987 46.359C94.802 46.0217 95.0037 45.5487 95.0037 44.94C95.0037 44.324 94.802 43.8473 94.3987 43.51C94.0027 43.1727 93.4197 43.004 92.6497 43.004H90.2407L90.6037 42.619V47.25ZM100.826 50V48.724L100.793 48.515V46.381C100.793 45.8897 100.654 45.512 100.375 45.248C100.104 44.984 99.6971 44.852 99.1544 44.852C98.7804 44.852 98.4247 44.9143 98.0874 45.039C97.7501 45.1637 97.4641 45.3287 97.2294 45.534L96.8774 44.951C97.1707 44.7017 97.5227 44.511 97.9334 44.379C98.3441 44.2397 98.7767 44.17 99.2314 44.17C99.9794 44.17 100.555 44.357 100.958 44.731C101.369 45.0977 101.574 45.6587 101.574 46.414V50H100.826ZM98.8354 50.055C98.4027 50.055 98.0251 49.9853 97.7024 49.846C97.3871 49.6993 97.1451 49.5013 96.9764 49.252C96.8077 48.9953 96.7234 48.702 96.7234 48.372C96.7234 48.0713 96.7931 47.8 96.9324 47.558C97.0791 47.3087 97.3137 47.1107 97.6364 46.964C97.9664 46.81 98.4064 46.733 98.9564 46.733H100.947V47.316H98.9784C98.4211 47.316 98.0324 47.415 97.8124 47.613C97.5997 47.811 97.4934 48.0567 97.4934 48.35C97.4934 48.68 97.6217 48.944 97.8784 49.142C98.1351 49.34 98.4944 49.439 98.9564 49.439C99.3964 49.439 99.7741 49.34 100.089 49.142C100.412 48.9367 100.647 48.6433 100.793 48.262L100.969 48.801C100.823 49.1823 100.566 49.4867 100.199 49.714C99.8401 49.9413 99.3854 50.055 98.8354 50.055ZM106.073 50.055C105.501 50.055 104.988 49.9303 104.533 49.681C104.086 49.4243 103.734 49.076 103.477 48.636C103.221 48.1887 103.092 47.679 103.092 47.107C103.092 46.5277 103.221 46.018 103.477 45.578C103.734 45.138 104.086 44.7933 104.533 44.544C104.988 44.2947 105.501 44.17 106.073 44.17C106.565 44.17 107.008 44.2653 107.404 44.456C107.8 44.6467 108.112 44.9327 108.339 45.314L107.756 45.71C107.558 45.4167 107.313 45.2003 107.019 45.061C106.726 44.9217 106.407 44.852 106.062 44.852C105.652 44.852 105.281 44.9473 104.951 45.138C104.621 45.3213 104.361 45.5817 104.17 45.919C103.98 46.2563 103.884 46.6523 103.884 47.107C103.884 47.5617 103.98 47.9577 104.17 48.295C104.361 48.6323 104.621 48.8963 104.951 49.087C105.281 49.2703 105.652 49.362 106.062 49.362C106.407 49.362 106.726 49.2923 107.019 49.153C107.313 49.0137 107.558 48.801 107.756 48.515L108.339 48.911C108.112 49.285 107.8 49.571 107.404 49.769C107.008 49.9597 106.565 50.055 106.073 50.055ZM109.852 50V44.225H115.044V50H114.263V44.698L114.461 44.907H110.435L110.633 44.698V50H109.852ZM117.264 50V44.225H118.045V48.812L121.906 44.225H122.599V50H121.818V45.402L117.968 50H117.264ZM127.257 50.055C126.685 50.055 126.172 49.9303 125.717 49.681C125.27 49.4243 124.918 49.076 124.661 48.636C124.404 48.1887 124.276 47.679 124.276 47.107C124.276 46.5277 124.404 46.018 124.661 45.578C124.918 45.138 125.27 44.7933 125.717 44.544C126.172 44.2947 126.685 44.17 127.257 44.17C127.748 44.17 128.192 44.2653 128.588 44.456C128.984 44.6467 129.296 44.9327 129.523 45.314L128.94 45.71C128.742 45.4167 128.496 45.2003 128.203 45.061C127.91 44.9217 127.591 44.852 127.246 44.852C126.835 44.852 126.465 44.9473 126.135 45.138C125.805 45.3213 125.545 45.5817 125.354 45.919C125.163 46.2563 125.068 46.6523 125.068 47.107C125.068 47.5617 125.163 47.9577 125.354 48.295C125.545 48.6323 125.805 48.8963 126.135 49.087C126.465 49.2703 126.835 49.362 127.246 49.362C127.591 49.362 127.91 49.2923 128.203 49.153C128.496 49.0137 128.742 48.801 128.94 48.515L129.523 48.911C129.296 49.285 128.984 49.571 128.588 49.769C128.192 49.9597 127.748 50.055 127.257 50.055ZM134.621 50V48.724L134.588 48.515V46.381C134.588 45.8897 134.449 45.512 134.17 45.248C133.899 44.984 133.492 44.852 132.949 44.852C132.575 44.852 132.22 44.9143 131.882 45.039C131.545 45.1637 131.259 45.3287 131.024 45.534L130.672 44.951C130.966 44.7017 131.318 44.511 131.728 44.379C132.139 44.2397 132.572 44.17 133.026 44.17C133.774 44.17 134.35 44.357 134.753 44.731C135.164 45.0977 135.369 45.6587 135.369 46.414V50H134.621ZM132.63 50.055C132.198 50.055 131.82 49.9853 131.497 49.846C131.182 49.6993 130.94 49.5013 130.771 49.252C130.603 48.9953 130.518 48.702 130.518 48.372C130.518 48.0713 130.588 47.8 130.727 47.558C130.874 47.3087 131.109 47.1107 131.431 46.964C131.761 46.81 132.201 46.733 132.751 46.733H134.742V47.316H132.773C132.216 47.316 131.827 47.415 131.607 47.613C131.395 47.811 131.288 48.0567 131.288 48.35C131.288 48.68 131.417 48.944 131.673 49.142C131.93 49.34 132.289 49.439 132.751 49.439C133.191 49.439 133.569 49.34 133.884 49.142C134.207 48.9367 134.442 48.6433 134.588 48.262L134.764 48.801C134.618 49.1823 134.361 49.4867 133.994 49.714C133.635 49.9413 133.18 50.055 132.63 50.055ZM137.448 50V44.225H138.229V46.777H141.87V44.225H142.651V50H141.87V47.448H138.229V50H137.448ZM144.871 50V44.225H145.652V48.812L149.513 44.225H150.206V50H149.425V45.402L145.575 50H144.871ZM154.919 50.055C154.318 50.055 153.79 49.9303 153.335 49.681C152.881 49.4243 152.525 49.076 152.268 48.636C152.012 48.1887 151.883 47.679 151.883 47.107C151.883 46.535 152.004 46.029 152.246 45.589C152.496 45.149 152.833 44.8043 153.258 44.555C153.691 44.2983 154.175 44.17 154.71 44.17C155.253 44.17 155.733 44.2947 156.151 44.544C156.577 44.786 156.91 45.1307 157.152 45.578C157.394 46.018 157.515 46.5277 157.515 47.107C157.515 47.1437 157.512 47.184 157.504 47.228C157.504 47.2647 157.504 47.305 157.504 47.349H152.477V46.766H157.086L156.778 46.997C156.778 46.579 156.687 46.2087 156.503 45.886C156.327 45.556 156.085 45.2993 155.777 45.116C155.469 44.9327 155.114 44.841 154.71 44.841C154.314 44.841 153.959 44.9327 153.643 45.116C153.328 45.2993 153.082 45.556 152.906 45.886C152.73 46.216 152.642 46.5937 152.642 47.019V47.14C152.642 47.58 152.738 47.9687 152.928 48.306C153.126 48.636 153.398 48.8963 153.742 49.087C154.094 49.2703 154.494 49.362 154.941 49.362C155.293 49.362 155.62 49.2997 155.92 49.175C156.228 49.0503 156.492 48.8597 156.712 48.603L157.152 49.109C156.896 49.417 156.573 49.6517 156.184 49.813C155.803 49.9743 155.381 50.055 154.919 50.055Z" fill="#828282"/>
<path d="M218.425 11.7777C219.099 12.7866 219.099 14.1911 219.099 17C219.099 19.8089 219.099 21.2134 218.425 22.2223C218.133 22.659 217.758 23.034 217.321 23.3259C216.44 23.9148 215.256 23.9892 213.099 23.9986V24L211.993 26.2111C211.625 26.9482 210.573 26.9482 210.204 26.2111L209.099 24V23.9986C206.941 23.9892 205.758 23.9148 204.876 23.3259C204.44 23.034 204.065 22.659 203.773 22.2223C203.099 21.2134 203.099 19.8089 203.099 17C203.099 14.1911 203.099 12.7866 203.773 11.7777C204.065 11.341 204.44 10.966 204.876 10.6741C205.885 10 207.29 10 210.099 10H212.099C214.908 10 216.312 10 217.321 10.6741C217.758 10.966 218.133 11.341 218.425 11.7777Z" stroke="#828282" stroke-width="2" stroke-linecap="round" stroke-linejoin="round"/>
<circle cx="218.599" cy="10.5" r="3.5" fill="#9C0A35"/>
<path d="M208.099 15L214.099 15" stroke="#828282" stroke-width="2" stroke-linecap="round" stroke-linejoin="round"/>
<path d="M208.099 19H211.099" stroke="#828282" stroke-width="2" stroke-linecap="round" stroke-linejoin="round"/>
<path d="M207.353 46.744C206.913 46.942 206.473 47.0923 206.033 47.195C205.6 47.2977 205.182 47.349 204.779 47.349C203.877 47.349 203.173 47.1327 202.667 46.7C202.168 46.26 201.919 45.6403 201.919 44.841V42.3H202.722V44.753C202.722 45.347 202.909 45.809 203.283 46.139C203.664 46.469 204.189 46.634 204.856 46.634C205.252 46.634 205.663 46.5827 206.088 46.48C206.513 46.37 206.935 46.216 207.353 46.018V46.744ZM207.21 50V42.3H208.002V50H207.21ZM214.013 50V48.724L213.98 48.515V46.381C213.98 45.8897 213.84 45.512 213.562 45.248C213.29 44.984 212.883 44.852 212.341 44.852C211.967 44.852 211.611 44.9143 211.274 45.039C210.936 45.1637 210.65 45.3287 210.416 45.534L210.064 44.951C210.357 44.7017 210.709 44.511 211.12 44.379C211.53 44.2397 211.963 44.17 212.418 44.17C213.166 44.17 213.741 44.357 214.145 44.731C214.555 45.0977 214.761 45.6587 214.761 46.414V50H214.013ZM212.022 50.055C211.589 50.055 211.211 49.9853 210.889 49.846C210.573 49.6993 210.331 49.5013 210.163 49.252C209.994 48.9953 209.91 48.702 209.91 48.372C209.91 48.0713 209.979 47.8 210.119 47.558C210.265 47.3087 210.5 47.1107 210.823 46.964C211.153 46.81 211.593 46.733 212.143 46.733H214.134V47.316H212.165C211.607 47.316 211.219 47.415 210.999 47.613C210.786 47.811 210.68 48.0567 210.68 48.35C210.68 48.68 210.808 48.944 211.065 49.142C211.321 49.34 211.681 49.439 212.143 49.439C212.583 49.439 212.96 49.34 213.276 49.142C213.598 48.9367 213.833 48.6433 213.98 48.262L214.156 48.801C214.009 49.1823 213.752 49.4867 213.386 49.714C213.026 49.9413 212.572 50.055 212.022 50.055ZM217.94 50V44.698L218.138 44.907H215.751V44.225H220.91V44.907H218.523L218.721 44.698V50H217.94Z" fill="#828282"/>
<path d="M313.638 26.4471C313.182 25.1713 312.177 24.0439 310.78 23.2399C309.383 22.4358 307.671 22 305.91 22C304.149 22 302.437 22.4358 301.04 23.2399C299.643 24.0439 298.639 25.1713 298.183 26.4471" stroke="#828282" stroke-width="2" stroke-linecap="round"/>
<circle cx="305.91" cy="14" r="4" stroke="#828282" stroke-width="2" stroke-linecap="round"/>
<path d="M280.723 50V42.3H287.202V50H286.399V42.784L286.608 43.004H281.317L281.526 42.784V50H280.723ZM292.594 50.055C292.096 50.055 291.645 49.9413 291.241 49.714C290.838 49.4793 290.515 49.1457 290.273 48.713C290.039 48.273 289.921 47.7377 289.921 47.107C289.921 46.4763 290.039 45.9447 290.273 45.512C290.508 45.072 290.827 44.7383 291.23 44.511C291.634 44.2837 292.088 44.17 292.594 44.17C293.144 44.17 293.636 44.2947 294.068 44.544C294.508 44.786 294.853 45.1307 295.102 45.578C295.352 46.018 295.476 46.5277 295.476 47.107C295.476 47.6937 295.352 48.207 295.102 48.647C294.853 49.087 294.508 49.4317 294.068 49.681C293.636 49.9303 293.144 50.055 292.594 50.055ZM289.613 52.134V44.225H290.361V45.963L290.284 47.118L290.394 48.284V52.134H289.613ZM292.539 49.362C292.95 49.362 293.317 49.2703 293.639 49.087C293.962 48.8963 294.219 48.6323 294.409 48.295C294.6 47.9503 294.695 47.5543 294.695 47.107C294.695 46.6597 294.6 46.2673 294.409 45.93C294.219 45.5927 293.962 45.3287 293.639 45.138C293.317 44.9473 292.95 44.852 292.539 44.852C292.129 44.852 291.758 44.9473 291.428 45.138C291.106 45.3287 290.849 45.5927 290.658 45.93C290.475 46.2673 290.383 46.6597 290.383 47.107C290.383 47.5543 290.475 47.9503 290.658 48.295C290.849 48.6323 291.106 48.8963 291.428 49.087C291.758 49.2703 292.129 49.362 292.539 49.362ZM299.53 50.055C298.973 50.055 298.471 49.9303 298.023 49.681C297.583 49.4243 297.235 49.076 296.978 48.636C296.722 48.1887 296.593 47.679 296.593 47.107C296.593 46.5277 296.722 46.018 296.978 45.578C297.235 45.138 297.583 44.7933 298.023 44.544C298.463 44.2947 298.966 44.17 299.53 44.17C300.102 44.17 300.608 44.2947 301.048 44.544C301.496 44.7933 301.844 45.138 302.093 45.578C302.35 46.018 302.478 46.5277 302.478 47.107C302.478 47.679 302.35 48.1887 302.093 48.636C301.844 49.076 301.496 49.4243 301.048 49.681C300.601 49.9303 300.095 50.055 299.53 50.055ZM299.53 49.362C299.948 49.362 300.319 49.2703 300.641 49.087C300.964 48.8963 301.217 48.6323 301.4 48.295C301.591 47.9503 301.686 47.5543 301.686 47.107C301.686 46.6523 301.591 46.2563 301.4 45.919C301.217 45.5817 300.964 45.3213 300.641 45.138C300.319 44.9473 299.952 44.852 299.541 44.852C299.131 44.852 298.764 44.9473 298.441 45.138C298.119 45.3213 297.862 45.5817 297.671 45.919C297.481 46.2563 297.385 46.6523 297.385 47.107C297.385 47.5543 297.481 47.9503 297.671 48.295C297.862 48.6323 298.119 48.8963 298.441 49.087C298.764 49.2703 299.127 49.362 299.53 49.362ZM307.393 50.066C307.393 50.066 307.378 50.066 307.349 50.066C307.319 50.066 307.29 50.066 307.261 50.066C307.239 50.066 307.22 50.066 307.206 50.066C306.062 50.0587 305.171 49.7983 304.533 49.285C303.895 48.7717 303.576 48.042 303.576 47.096C303.576 46.1647 303.895 45.446 304.533 44.94C305.178 44.4267 306.084 44.1663 307.25 44.159C307.257 44.159 307.272 44.159 307.294 44.159C307.323 44.159 307.349 44.159 307.371 44.159C307.393 44.159 307.407 44.159 307.415 44.159C308.588 44.1663 309.501 44.4267 310.154 44.94C310.806 45.446 311.133 46.1647 311.133 47.096C311.133 48.0493 310.803 48.7827 310.143 49.296C309.49 49.8093 308.573 50.066 307.393 50.066ZM307.382 49.384C308.034 49.384 308.581 49.296 309.021 49.12C309.461 48.9367 309.794 48.6763 310.022 48.339C310.249 48.0017 310.363 47.5873 310.363 47.096C310.363 46.6193 310.249 46.216 310.022 45.886C309.794 45.5487 309.461 45.292 309.021 45.116C308.581 44.94 308.034 44.852 307.382 44.852C307.374 44.852 307.352 44.852 307.316 44.852C307.286 44.852 307.268 44.852 307.261 44.852C306.623 44.852 306.087 44.9437 305.655 45.127C305.222 45.303 304.896 45.556 304.676 45.886C304.456 46.216 304.346 46.6193 304.346 47.096C304.346 47.58 304.456 47.9907 304.676 48.328C304.903 48.6653 305.233 48.9257 305.666 49.109C306.098 49.285 306.63 49.3767 307.261 49.384C307.275 49.384 307.297 49.384 307.327 49.384C307.356 49.384 307.374 49.384 307.382 49.384ZM306.964 52.134V41.838H307.723V52.134H306.964ZM312.784 50V44.225H313.565V48.812L317.426 44.225H318.119V50H317.338V45.402L313.488 50H312.784ZM319.302 49.989L319.357 49.318C319.408 49.3253 319.456 49.3363 319.5 49.351C319.551 49.3583 319.595 49.362 319.632 49.362C319.866 49.362 320.053 49.274 320.193 49.098C320.339 48.922 320.449 48.6873 320.523 48.394C320.596 48.1007 320.647 47.7707 320.677 47.404C320.706 47.03 320.732 46.656 320.754 46.282L320.853 44.225H325.088V50H324.307V44.676L324.505 44.907H321.359L321.546 44.665L321.458 46.337C321.436 46.8357 321.395 47.3123 321.337 47.767C321.285 48.2217 321.201 48.6213 321.084 48.966C320.974 49.3107 320.82 49.582 320.622 49.78C320.424 49.9707 320.171 50.066 319.863 50.066C319.775 50.066 319.683 50.0587 319.588 50.044C319.5 50.0293 319.404 50.011 319.302 49.989ZM329.794 46.26C330.52 46.2673 331.07 46.4287 331.444 46.744C331.825 47.0593 332.016 47.514 332.016 48.108C332.016 48.724 331.81 49.197 331.4 49.527C330.996 49.857 330.41 50.0183 329.64 50.011L327.308 50V44.225H328.089V46.238L329.794 46.26ZM329.596 49.417C330.131 49.4243 330.534 49.318 330.806 49.098C331.084 48.8707 331.224 48.5407 331.224 48.108C331.224 47.6753 331.088 47.36 330.817 47.162C330.545 46.9567 330.138 46.8503 329.596 46.843L328.089 46.821V49.395L329.596 49.417Z" fill="#828282"/>
<defs>
<filter id="filter0_f_3338_4530" x="6.05859" y="0" width="36" height="36" filterUnits="userSpaceOnUse" color-interpolation-filters="sRGB">
<feFlood flood-opacity="0" result="BackgroundImageFix"/>
<feBlend mode="normal" in="SourceGraphic" in2="BackgroundImageFix" result="shape"/>
<feGaussianBlur stdDeviation="3" result="effect1_foregroundBlur_3338_4530"/>
</filter>
</defs>
</svg>
