<svg width="375" height="85" viewBox="0 0 375 85" fill="none" xmlns="http://www.w3.org/2000/svg">
<rect width="375" height="85" fill="#21212E"/>
<g filter="url(#filter0_f_12_40735)">
<rect x="33.0586" y="19" width="24" height="24" rx="12" fill="#B9B9C9"/>
</g>
<path fill-rule="evenodd" clip-rule="evenodd" d="M38.3331 29.1262C38.0586 29.7229 38.0586 30.4018 38.0586 31.7595V35.9999C38.0586 37.8856 38.0586 38.8284 38.6444 39.4142C39.1759 39.9457 40.0014 39.9949 41.5586 39.9995V35C41.5586 33.8954 42.454 33 43.5586 33H46.5586C47.6632 33 48.5586 33.8954 48.5586 35V39.9995C50.1157 39.9949 50.9413 39.9457 51.4728 39.4142C52.0586 38.8284 52.0586 37.8856 52.0586 35.9999V31.7595C52.0586 30.4018 52.0586 29.7229 51.7841 29.1262C51.5097 28.5294 50.9942 28.0876 49.9633 27.204L48.9633 26.3469C47.1 24.7497 46.1684 23.9512 45.0586 23.9512C43.9488 23.9512 43.0172 24.7497 41.1538 26.3469L40.1538 27.204C39.123 28.0876 38.6075 28.5294 38.3331 29.1262ZM46.5586 39.9999V35H43.5586V39.9999H46.5586Z" fill="#9C0A35"/>
<path d="M23.0197 63V55.3H28.2447L28.2337 56.51H24.0867L24.4167 56.169L24.4277 63H23.0197ZM26.777 62.989L26.843 61.834C26.8943 61.8413 26.942 61.8487 26.986 61.856C27.03 61.8633 27.0703 61.867 27.107 61.867C27.3343 61.867 27.5103 61.7973 27.635 61.658C27.7597 61.5187 27.8513 61.3317 27.91 61.097C27.976 60.855 28.02 60.5873 28.042 60.294C28.0713 59.9933 28.0933 59.6927 28.108 59.392L28.207 57.126H32.959V63H31.584V57.918L31.903 58.292H29.109L29.406 57.907L29.329 59.458C29.307 59.9787 29.263 60.4627 29.197 60.91C29.1383 61.35 29.043 61.735 28.911 62.065C28.7863 62.395 28.6103 62.6517 28.383 62.835C28.163 63.0183 27.8807 63.11 27.536 63.11C27.426 63.11 27.305 63.099 27.173 63.077C27.0483 63.055 26.9163 63.0257 26.777 62.989ZM38.3748 63V61.812L38.2978 61.559V59.48C38.2978 59.0767 38.1768 58.765 37.9348 58.545C37.6928 58.3177 37.3261 58.204 36.8348 58.204C36.5048 58.204 36.1784 58.2553 35.8558 58.358C35.5404 58.4607 35.2728 58.6037 35.0528 58.787L34.5138 57.786C34.8291 57.544 35.2031 57.3643 35.6358 57.247C36.0758 57.1223 36.5304 57.06 36.9998 57.06C37.8504 57.06 38.5068 57.2653 38.9688 57.676C39.4381 58.0793 39.6728 58.7063 39.6728 59.557V63H38.3748ZM36.5268 63.077C36.0868 63.077 35.7018 63.0037 35.3718 62.857C35.0418 62.703 34.7851 62.494 34.6018 62.23C34.4258 61.9587 34.3378 61.6543 34.3378 61.317C34.3378 60.987 34.4148 60.69 34.5688 60.426C34.7301 60.162 34.9904 59.953 35.3498 59.799C35.7091 59.645 36.1858 59.568 36.7798 59.568H38.4848V60.481H36.8788C36.4094 60.481 36.0941 60.558 35.9328 60.712C35.7714 60.8587 35.6908 61.042 35.6908 61.262C35.6908 61.5113 35.7898 61.7093 35.9878 61.856C36.1858 62.0027 36.4608 62.076 36.8128 62.076C37.1501 62.076 37.4508 61.999 37.7148 61.845C37.9861 61.691 38.1804 61.4637 38.2978 61.163L38.5288 61.988C38.3968 62.3327 38.1584 62.6003 37.8138 62.791C37.4764 62.9817 37.0474 63.077 36.5268 63.077ZM41.3742 63V57.126H44.2452C44.9566 57.126 45.5139 57.258 45.9172 57.522C46.3279 57.786 46.5332 58.16 46.5332 58.644C46.5332 59.1207 46.3426 59.4947 45.9612 59.766C45.5799 60.03 45.0739 60.162 44.4432 60.162L44.6082 59.821C45.3196 59.821 45.8476 59.953 46.1922 60.217C46.5442 60.4737 46.7202 60.8513 46.7202 61.35C46.7202 61.8707 46.5259 62.2777 46.1372 62.571C45.7486 62.857 45.1582 63 44.3662 63H41.3742ZM42.6832 61.999H44.2562C44.6302 61.999 44.9126 61.9403 45.1032 61.823C45.2939 61.6983 45.3892 61.5113 45.3892 61.262C45.3892 60.998 45.3012 60.8037 45.1252 60.679C44.9492 60.5543 44.6742 60.492 44.3002 60.492H42.6832V61.999ZM42.6832 59.579H44.1242C44.4762 59.579 44.7402 59.5167 44.9162 59.392C45.0996 59.26 45.1912 59.0767 45.1912 58.842C45.1912 58.6 45.0996 58.4203 44.9162 58.303C44.7402 58.1857 44.4762 58.127 44.1242 58.127H42.6832V59.579ZM48.1848 63V57.126H49.5598V59.513H52.5188V57.126H53.8938V63H52.5188V60.679H49.5598V63H48.1848ZM59.3005 63V61.812L59.2235 61.559V59.48C59.2235 59.0767 59.1025 58.765 58.8605 58.545C58.6185 58.3177 58.2519 58.204 57.7605 58.204C57.4305 58.204 57.1042 58.2553 56.7815 58.358C56.4662 58.4607 56.1985 58.6037 55.9785 58.787L55.4395 57.786C55.7549 57.544 56.1289 57.3643 56.5615 57.247C57.0015 57.1223 57.4562 57.06 57.9255 57.06C58.7762 57.06 59.4325 57.2653 59.8945 57.676C60.3639 58.0793 60.5985 58.7063 60.5985 59.557V63H59.3005ZM57.4525 63.077C57.0125 63.077 56.6275 63.0037 56.2975 62.857C55.9675 62.703 55.7109 62.494 55.5275 62.23C55.3515 61.9587 55.2635 61.6543 55.2635 61.317C55.2635 60.987 55.3405 60.69 55.4945 60.426C55.6559 60.162 55.9162 59.953 56.2755 59.799C56.6349 59.645 57.1115 59.568 57.7055 59.568H59.4105V60.481H57.8045C57.3352 60.481 57.0199 60.558 56.8585 60.712C56.6972 60.8587 56.6165 61.042 56.6165 61.262C56.6165 61.5113 56.7155 61.7093 56.9135 61.856C57.1115 62.0027 57.3865 62.076 57.7385 62.076C58.0759 62.076 58.3765 61.999 58.6405 61.845C58.9119 61.691 59.1062 61.4637 59.2235 61.163L59.4545 61.988C59.3225 62.3327 59.0842 62.6003 58.7395 62.791C58.4022 62.9817 57.9732 63.077 57.4525 63.077ZM66.029 63V60.998L66.227 61.229H64.467C63.6604 61.229 63.026 61.0603 62.564 60.723C62.1094 60.3783 61.882 59.8833 61.882 59.238C61.882 58.5487 62.124 58.0243 62.608 57.665C63.0994 57.3057 63.752 57.126 64.566 57.126H67.261V63H66.029ZM61.805 63L63.389 60.756H64.797L63.279 63H61.805ZM66.029 60.558V57.918L66.227 58.281H64.61C64.1847 58.281 63.8547 58.3617 63.62 58.523C63.3927 58.677 63.279 58.93 63.279 59.282C63.279 59.942 63.708 60.272 64.566 60.272H66.227L66.029 60.558Z" fill="#9C0A35"/>
<rect x="135.312" y="25" width="18" height="15" rx="2" stroke="#828282" stroke-width="2"/>
<path d="M135.312 29C135.312 27.1144 135.312 26.1716 135.898 25.5858C136.484 25 137.427 25 139.312 25H149.312C151.198 25 152.141 25 152.727 25.5858C153.312 26.1716 153.312 27.1144 153.312 29H135.312Z" fill="#828282"/>
<path d="M139.312 22L139.312 25" stroke="#828282" stroke-width="2" stroke-linecap="round"/>
<path d="M149.312 22L149.312 25" stroke="#828282" stroke-width="2" stroke-linecap="round"/>
<path d="M110.79 63V55.3H113.672C114.324 55.3 114.885 55.4063 115.355 55.619C115.824 55.8243 116.183 56.125 116.433 56.521C116.689 56.9097 116.818 57.3827 116.818 57.94C116.818 58.4827 116.689 58.952 116.433 59.348C116.183 59.7367 115.824 60.0373 115.355 60.25C114.885 60.4627 114.324 60.569 113.672 60.569H111.241L111.604 60.184V63H110.79ZM111.604 60.25L111.241 59.854H113.65C114.42 59.854 115.003 59.689 115.399 59.359C115.802 59.0217 116.004 58.5487 116.004 57.94C116.004 57.324 115.802 56.8473 115.399 56.51C115.003 56.1727 114.42 56.004 113.65 56.004H111.241L111.604 55.619V60.25ZM121.826 63V61.724L121.793 61.515V59.381C121.793 58.8897 121.654 58.512 121.375 58.248C121.104 57.984 120.697 57.852 120.154 57.852C119.78 57.852 119.425 57.9143 119.087 58.039C118.75 58.1637 118.464 58.3287 118.229 58.534L117.877 57.951C118.171 57.7017 118.523 57.511 118.933 57.379C119.344 57.2397 119.777 57.17 120.231 57.17C120.979 57.17 121.555 57.357 121.958 57.731C122.369 58.0977 122.574 58.6587 122.574 59.414V63H121.826ZM119.835 63.055C119.403 63.055 119.025 62.9853 118.702 62.846C118.387 62.6993 118.145 62.5013 117.976 62.252C117.808 61.9953 117.723 61.702 117.723 61.372C117.723 61.0713 117.793 60.8 117.932 60.558C118.079 60.3087 118.314 60.1107 118.636 59.964C118.966 59.81 119.406 59.733 119.956 59.733H121.947V60.316H119.978C119.421 60.316 119.032 60.415 118.812 60.613C118.6 60.811 118.493 61.0567 118.493 61.35C118.493 61.68 118.622 61.944 118.878 62.142C119.135 62.34 119.494 62.439 119.956 62.439C120.396 62.439 120.774 62.34 121.089 62.142C121.412 61.9367 121.647 61.6433 121.793 61.262L121.969 61.801C121.823 62.1823 121.566 62.4867 121.199 62.714C120.84 62.9413 120.385 63.055 119.835 63.055ZM127.073 63.055C126.501 63.055 125.988 62.9303 125.533 62.681C125.086 62.4243 124.734 62.076 124.477 61.636C124.221 61.1887 124.092 60.679 124.092 60.107C124.092 59.5277 124.221 59.018 124.477 58.578C124.734 58.138 125.086 57.7933 125.533 57.544C125.988 57.2947 126.501 57.17 127.073 57.17C127.565 57.17 128.008 57.2653 128.404 57.456C128.8 57.6467 129.112 57.9327 129.339 58.314L128.756 58.71C128.558 58.4167 128.313 58.2003 128.019 58.061C127.726 57.9217 127.407 57.852 127.062 57.852C126.652 57.852 126.281 57.9473 125.951 58.138C125.621 58.3213 125.361 58.5817 125.17 58.919C124.98 59.2563 124.884 59.6523 124.884 60.107C124.884 60.5617 124.98 60.9577 125.17 61.295C125.361 61.6323 125.621 61.8963 125.951 62.087C126.281 62.2703 126.652 62.362 127.062 62.362C127.407 62.362 127.726 62.2923 128.019 62.153C128.313 62.0137 128.558 61.801 128.756 61.515L129.339 61.911C129.112 62.285 128.8 62.571 128.404 62.769C128.008 62.9597 127.565 63.055 127.073 63.055ZM130.852 63V57.225H136.044V63H135.263V57.698L135.461 57.907H131.435L131.633 57.698V63H130.852ZM138.264 63V57.225H139.045V61.812L142.906 57.225H143.599V63H142.818V58.402L138.968 63H138.264ZM148.257 63.055C147.685 63.055 147.172 62.9303 146.717 62.681C146.27 62.4243 145.918 62.076 145.661 61.636C145.404 61.1887 145.276 60.679 145.276 60.107C145.276 59.5277 145.404 59.018 145.661 58.578C145.918 58.138 146.27 57.7933 146.717 57.544C147.172 57.2947 147.685 57.17 148.257 57.17C148.748 57.17 149.192 57.2653 149.588 57.456C149.984 57.6467 150.296 57.9327 150.523 58.314L149.94 58.71C149.742 58.4167 149.496 58.2003 149.203 58.061C148.91 57.9217 148.591 57.852 148.246 57.852C147.835 57.852 147.465 57.9473 147.135 58.138C146.805 58.3213 146.545 58.5817 146.354 58.919C146.163 59.2563 146.068 59.6523 146.068 60.107C146.068 60.5617 146.163 60.9577 146.354 61.295C146.545 61.6323 146.805 61.8963 147.135 62.087C147.465 62.2703 147.835 62.362 148.246 62.362C148.591 62.362 148.91 62.2923 149.203 62.153C149.496 62.0137 149.742 61.801 149.94 61.515L150.523 61.911C150.296 62.285 149.984 62.571 149.588 62.769C149.192 62.9597 148.748 63.055 148.257 63.055ZM155.621 63V61.724L155.588 61.515V59.381C155.588 58.8897 155.449 58.512 155.17 58.248C154.899 57.984 154.492 57.852 153.949 57.852C153.575 57.852 153.22 57.9143 152.882 58.039C152.545 58.1637 152.259 58.3287 152.024 58.534L151.672 57.951C151.966 57.7017 152.318 57.511 152.728 57.379C153.139 57.2397 153.572 57.17 154.026 57.17C154.774 57.17 155.35 57.357 155.753 57.731C156.164 58.0977 156.369 58.6587 156.369 59.414V63H155.621ZM153.63 63.055C153.198 63.055 152.82 62.9853 152.497 62.846C152.182 62.6993 151.94 62.5013 151.771 62.252C151.603 61.9953 151.518 61.702 151.518 61.372C151.518 61.0713 151.588 60.8 151.727 60.558C151.874 60.3087 152.109 60.1107 152.431 59.964C152.761 59.81 153.201 59.733 153.751 59.733H155.742V60.316H153.773C153.216 60.316 152.827 60.415 152.607 60.613C152.395 60.811 152.288 61.0567 152.288 61.35C152.288 61.68 152.417 61.944 152.673 62.142C152.93 62.34 153.289 62.439 153.751 62.439C154.191 62.439 154.569 62.34 154.884 62.142C155.207 61.9367 155.442 61.6433 155.588 61.262L155.764 61.801C155.618 62.1823 155.361 62.4867 154.994 62.714C154.635 62.9413 154.18 63.055 153.63 63.055ZM158.448 63V57.225H159.229V59.777H162.87V57.225H163.651V63H162.87V60.448H159.229V63H158.448ZM165.871 63V57.225H166.652V61.812L170.513 57.225H171.206V63H170.425V58.402L166.575 63H165.871ZM175.919 63.055C175.318 63.055 174.79 62.9303 174.335 62.681C173.881 62.4243 173.525 62.076 173.268 61.636C173.012 61.1887 172.883 60.679 172.883 60.107C172.883 59.535 173.004 59.029 173.246 58.589C173.496 58.149 173.833 57.8043 174.258 57.555C174.691 57.2983 175.175 57.17 175.71 57.17C176.253 57.17 176.733 57.2947 177.151 57.544C177.577 57.786 177.91 58.1307 178.152 58.578C178.394 59.018 178.515 59.5277 178.515 60.107C178.515 60.1437 178.512 60.184 178.504 60.228C178.504 60.2647 178.504 60.305 178.504 60.349H173.477V59.766H178.086L177.778 59.997C177.778 59.579 177.687 59.2087 177.503 58.886C177.327 58.556 177.085 58.2993 176.777 58.116C176.469 57.9327 176.114 57.841 175.71 57.841C175.314 57.841 174.959 57.9327 174.643 58.116C174.328 58.2993 174.082 58.556 173.906 58.886C173.73 59.216 173.642 59.5937 173.642 60.019V60.14C173.642 60.58 173.738 60.9687 173.928 61.306C174.126 61.636 174.398 61.8963 174.742 62.087C175.094 62.2703 175.494 62.362 175.941 62.362C176.293 62.362 176.62 62.2997 176.92 62.175C177.228 62.0503 177.492 61.8597 177.712 61.603L178.152 62.109C177.896 62.417 177.573 62.6517 177.184 62.813C176.803 62.9743 176.381 63.055 175.919 63.055Z" fill="#828282"/>
<path d="M239.425 24.7777C240.099 25.7866 240.099 27.1911 240.099 30C240.099 32.8089 240.099 34.2134 239.425 35.2223C239.133 35.659 238.758 36.034 238.321 36.3259C237.44 36.9148 236.256 36.9892 234.099 36.9986V37L232.993 39.2111C232.625 39.9482 231.573 39.9482 231.204 39.2111L230.099 37V36.9986C227.941 36.9892 226.758 36.9148 225.876 36.3259C225.44 36.034 225.065 35.659 224.773 35.2223C224.099 34.2134 224.099 32.8089 224.099 30C224.099 27.1911 224.099 25.7866 224.773 24.7777C225.065 24.341 225.44 23.966 225.876 23.6741C226.885 23 228.29 23 231.099 23H233.099C235.908 23 237.312 23 238.321 23.6741C238.758 23.966 239.133 24.341 239.425 24.7777Z" stroke="#828282" stroke-width="2" stroke-linecap="round" stroke-linejoin="round"/>
<circle cx="239.599" cy="23.5" r="3.5" fill="#9C0A35"/>
<path d="M229.099 28L235.099 28" stroke="#828282" stroke-width="2" stroke-linecap="round" stroke-linejoin="round"/>
<path d="M229.099 32H232.099" stroke="#828282" stroke-width="2" stroke-linecap="round" stroke-linejoin="round"/>
<path d="M228.353 59.744C227.913 59.942 227.473 60.0923 227.033 60.195C226.6 60.2977 226.182 60.349 225.779 60.349C224.877 60.349 224.173 60.1327 223.667 59.7C223.168 59.26 222.919 58.6403 222.919 57.841V55.3H223.722V57.753C223.722 58.347 223.909 58.809 224.283 59.139C224.664 59.469 225.189 59.634 225.856 59.634C226.252 59.634 226.663 59.5827 227.088 59.48C227.513 59.37 227.935 59.216 228.353 59.018V59.744ZM228.21 63V55.3H229.002V63H228.21ZM235.013 63V61.724L234.98 61.515V59.381C234.98 58.8897 234.84 58.512 234.562 58.248C234.29 57.984 233.883 57.852 233.341 57.852C232.967 57.852 232.611 57.9143 232.274 58.039C231.936 58.1637 231.65 58.3287 231.416 58.534L231.064 57.951C231.357 57.7017 231.709 57.511 232.12 57.379C232.53 57.2397 232.963 57.17 233.418 57.17C234.166 57.17 234.741 57.357 235.145 57.731C235.555 58.0977 235.761 58.6587 235.761 59.414V63H235.013ZM233.022 63.055C232.589 63.055 232.211 62.9853 231.889 62.846C231.573 62.6993 231.331 62.5013 231.163 62.252C230.994 61.9953 230.91 61.702 230.91 61.372C230.91 61.0713 230.979 60.8 231.119 60.558C231.265 60.3087 231.5 60.1107 231.823 59.964C232.153 59.81 232.593 59.733 233.143 59.733H235.134V60.316H233.165C232.607 60.316 232.219 60.415 231.999 60.613C231.786 60.811 231.68 61.0567 231.68 61.35C231.68 61.68 231.808 61.944 232.065 62.142C232.321 62.34 232.681 62.439 233.143 62.439C233.583 62.439 233.96 62.34 234.276 62.142C234.598 61.9367 234.833 61.6433 234.98 61.262L235.156 61.801C235.009 62.1823 234.752 62.4867 234.386 62.714C234.026 62.9413 233.572 63.055 233.022 63.055ZM238.94 63V57.698L239.138 57.907H236.751V57.225H241.91V57.907H239.523L239.721 57.698V63H238.94Z" fill="#828282"/>
<path d="M334.638 39.4471C334.182 38.1713 333.177 37.0439 331.78 36.2399C330.383 35.4358 328.671 35 326.91 35C325.149 35 323.437 35.4358 322.04 36.2399C320.643 37.0439 319.639 38.1713 319.183 39.4471" stroke="#828282" stroke-width="2" stroke-linecap="round"/>
<circle cx="326.91" cy="27" r="4" stroke="#828282" stroke-width="2" stroke-linecap="round"/>
<path d="M301.723 63V55.3H308.202V63H307.399V55.784L307.608 56.004H302.317L302.526 55.784V63H301.723ZM313.594 63.055C313.096 63.055 312.645 62.9413 312.241 62.714C311.838 62.4793 311.515 62.1457 311.273 61.713C311.039 61.273 310.921 60.7377 310.921 60.107C310.921 59.4763 311.039 58.9447 311.273 58.512C311.508 58.072 311.827 57.7383 312.23 57.511C312.634 57.2837 313.088 57.17 313.594 57.17C314.144 57.17 314.636 57.2947 315.068 57.544C315.508 57.786 315.853 58.1307 316.102 58.578C316.352 59.018 316.476 59.5277 316.476 60.107C316.476 60.6937 316.352 61.207 316.102 61.647C315.853 62.087 315.508 62.4317 315.068 62.681C314.636 62.9303 314.144 63.055 313.594 63.055ZM310.613 65.134V57.225H311.361V58.963L311.284 60.118L311.394 61.284V65.134H310.613ZM313.539 62.362C313.95 62.362 314.317 62.2703 314.639 62.087C314.962 61.8963 315.219 61.6323 315.409 61.295C315.6 60.9503 315.695 60.5543 315.695 60.107C315.695 59.6597 315.6 59.2673 315.409 58.93C315.219 58.5927 314.962 58.3287 314.639 58.138C314.317 57.9473 313.95 57.852 313.539 57.852C313.129 57.852 312.758 57.9473 312.428 58.138C312.106 58.3287 311.849 58.5927 311.658 58.93C311.475 59.2673 311.383 59.6597 311.383 60.107C311.383 60.5543 311.475 60.9503 311.658 61.295C311.849 61.6323 312.106 61.8963 312.428 62.087C312.758 62.2703 313.129 62.362 313.539 62.362ZM320.53 63.055C319.973 63.055 319.471 62.9303 319.023 62.681C318.583 62.4243 318.235 62.076 317.978 61.636C317.722 61.1887 317.593 60.679 317.593 60.107C317.593 59.5277 317.722 59.018 317.978 58.578C318.235 58.138 318.583 57.7933 319.023 57.544C319.463 57.2947 319.966 57.17 320.53 57.17C321.102 57.17 321.608 57.2947 322.048 57.544C322.496 57.7933 322.844 58.138 323.093 58.578C323.35 59.018 323.478 59.5277 323.478 60.107C323.478 60.679 323.35 61.1887 323.093 61.636C322.844 62.076 322.496 62.4243 322.048 62.681C321.601 62.9303 321.095 63.055 320.53 63.055ZM320.53 62.362C320.948 62.362 321.319 62.2703 321.641 62.087C321.964 61.8963 322.217 61.6323 322.4 61.295C322.591 60.9503 322.686 60.5543 322.686 60.107C322.686 59.6523 322.591 59.2563 322.4 58.919C322.217 58.5817 321.964 58.3213 321.641 58.138C321.319 57.9473 320.952 57.852 320.541 57.852C320.131 57.852 319.764 57.9473 319.441 58.138C319.119 58.3213 318.862 58.5817 318.671 58.919C318.481 59.2563 318.385 59.6523 318.385 60.107C318.385 60.5543 318.481 60.9503 318.671 61.295C318.862 61.6323 319.119 61.8963 319.441 62.087C319.764 62.2703 320.127 62.362 320.53 62.362ZM328.393 63.066C328.393 63.066 328.378 63.066 328.349 63.066C328.319 63.066 328.29 63.066 328.261 63.066C328.239 63.066 328.22 63.066 328.206 63.066C327.062 63.0587 326.171 62.7983 325.533 62.285C324.895 61.7717 324.576 61.042 324.576 60.096C324.576 59.1647 324.895 58.446 325.533 57.94C326.178 57.4267 327.084 57.1663 328.25 57.159C328.257 57.159 328.272 57.159 328.294 57.159C328.323 57.159 328.349 57.159 328.371 57.159C328.393 57.159 328.407 57.159 328.415 57.159C329.588 57.1663 330.501 57.4267 331.154 57.94C331.806 58.446 332.133 59.1647 332.133 60.096C332.133 61.0493 331.803 61.7827 331.143 62.296C330.49 62.8093 329.573 63.066 328.393 63.066ZM328.382 62.384C329.034 62.384 329.581 62.296 330.021 62.12C330.461 61.9367 330.794 61.6763 331.022 61.339C331.249 61.0017 331.363 60.5873 331.363 60.096C331.363 59.6193 331.249 59.216 331.022 58.886C330.794 58.5487 330.461 58.292 330.021 58.116C329.581 57.94 329.034 57.852 328.382 57.852C328.374 57.852 328.352 57.852 328.316 57.852C328.286 57.852 328.268 57.852 328.261 57.852C327.623 57.852 327.087 57.9437 326.655 58.127C326.222 58.303 325.896 58.556 325.676 58.886C325.456 59.216 325.346 59.6193 325.346 60.096C325.346 60.58 325.456 60.9907 325.676 61.328C325.903 61.6653 326.233 61.9257 326.666 62.109C327.098 62.285 327.63 62.3767 328.261 62.384C328.275 62.384 328.297 62.384 328.327 62.384C328.356 62.384 328.374 62.384 328.382 62.384ZM327.964 65.134V54.838H328.723V65.134H327.964ZM333.784 63V57.225H334.565V61.812L338.426 57.225H339.119V63H338.338V58.402L334.488 63H333.784ZM340.302 62.989L340.357 62.318C340.408 62.3253 340.456 62.3363 340.5 62.351C340.551 62.3583 340.595 62.362 340.632 62.362C340.866 62.362 341.053 62.274 341.193 62.098C341.339 61.922 341.449 61.6873 341.523 61.394C341.596 61.1007 341.647 60.7707 341.677 60.404C341.706 60.03 341.732 59.656 341.754 59.282L341.853 57.225H346.088V63H345.307V57.676L345.505 57.907H342.359L342.546 57.665L342.458 59.337C342.436 59.8357 342.395 60.3123 342.337 60.767C342.285 61.2217 342.201 61.6213 342.084 61.966C341.974 62.3107 341.82 62.582 341.622 62.78C341.424 62.9707 341.171 63.066 340.863 63.066C340.775 63.066 340.683 63.0587 340.588 63.044C340.5 63.0293 340.404 63.011 340.302 62.989ZM350.794 59.26C351.52 59.2673 352.07 59.4287 352.444 59.744C352.825 60.0593 353.016 60.514 353.016 61.108C353.016 61.724 352.81 62.197 352.4 62.527C351.996 62.857 351.41 63.0183 350.64 63.011L348.308 63V57.225H349.089V59.238L350.794 59.26ZM350.596 62.417C351.131 62.4243 351.534 62.318 351.806 62.098C352.084 61.8707 352.224 61.5407 352.224 61.108C352.224 60.6753 352.088 60.36 351.817 60.162C351.545 59.9567 351.138 59.8503 350.596 59.843L349.089 59.821V62.395L350.596 62.417Z" fill="#828282"/>
<defs>
<filter id="filter0_f_12_40735" x="27.0586" y="13" width="36" height="36" filterUnits="userSpaceOnUse" color-interpolation-filters="sRGB">
<feFlood flood-opacity="0" result="BackgroundImageFix"/>
<feBlend mode="normal" in="SourceGraphic" in2="BackgroundImageFix" result="shape"/>
<feGaussianBlur stdDeviation="3" result="effect1_foregroundBlur_12_40735"/>
</filter>
</defs>
</svg>
