<svg width="50" height="64" viewBox="0 0 50 64" fill="none" xmlns="http://www.w3.org/2000/svg">
<g clip-path="url(#clip0_12_23334)">
<path fill-rule="evenodd" clip-rule="evenodd" d="M24.9908 0C21.1802 0 17.5731 0.884029 14.3359 2.39424V10.3137C17.3326 8.12201 20.9952 6.83281 24.9908 6.83281C34.9427 6.83281 43.0448 14.8996 43.0448 24.8081C43.0448 34.7165 34.9427 42.8017 24.9908 42.8017C15.0388 42.8017 6.93674 34.7165 6.93674 24.8081C6.93674 24.6976 6.93674 24.587 6.93674 24.495V7.69842C2.64521 12.1738 0 18.2331 0 24.9001C0 27.9942 1.14687 31.4935 2.7192 34.956C4.32852 38.4552 6.49279 42.1387 8.80503 45.638C13.411 52.6365 18.6829 59.1194 21.3652 62.3056C23.2704 64.5709 26.7296 64.5709 28.6164 62.3056C31.2986 59.1194 36.5705 52.6365 41.1765 45.638C43.4887 42.1387 45.653 38.4552 47.2623 34.956C48.8346 31.5119 49.9815 27.9942 49.9815 24.9001C50 11.1609 38.8087 0 24.9908 0Z" fill="#9C0B35"/>
<path fill-rule="evenodd" clip-rule="evenodd" d="M24.9908 35.4167C30.8731 35.4167 35.6456 30.6467 35.6456 24.79C35.6456 18.9333 30.8546 14.1816 24.9908 14.1816C19.1269 14.1816 14.5209 18.7675 14.3359 24.4769V24.9742V25.011C14.4654 30.7572 19.1824 35.3983 24.9908 35.3983V35.4167ZM24.9908 18.4729C28.5239 18.4729 31.3726 21.3091 31.3726 24.8084C31.3726 28.3077 28.5239 31.1439 24.9908 31.1439C21.4577 31.1439 18.609 28.3077 18.609 24.8084C18.609 21.3091 21.4577 18.4729 24.9908 18.4729Z" fill="#9C0B35"/>
</g>
<defs>
<clipPath id="clip0_12_23334">
<rect width="50" height="64" fill="white"/>
</clipPath>
</defs>
</svg>
