<svg width="30" height="30" viewBox="0 0 30 30" fill="none" xmlns="http://www.w3.org/2000/svg">
<path d="M12.1886 21.5635V27.6581C12.1864 27.8434 12.2214 28.0272 12.2913 28.1988C12.3612 28.3704 12.4648 28.5263 12.5958 28.6573C12.7268 28.7884 12.8827 28.8919 13.0543 28.9618C13.2259 29.0317 13.4097 29.0667 13.595 29.0645V29.0645C13.7803 29.0667 13.9641 29.0317 14.1357 28.9618C14.3073 28.8919 14.4632 28.7884 14.5943 28.6573C14.7253 28.5263 14.8288 28.3704 14.8987 28.1988C14.9687 28.0272 15.0036 27.8434 15.0015 27.6581" stroke="white" stroke-width="1.5" stroke-miterlimit="10" stroke-linecap="round"/>
<path d="M15.0001 21.5635V27.6581C14.998 27.8434 15.0329 28.0272 15.1028 28.1988C15.1728 28.3704 15.2763 28.5263 15.4073 28.6573C15.5383 28.7884 15.6942 28.8919 15.8658 28.9618C16.0374 29.0317 16.2213 29.0667 16.4065 29.0645C16.5918 29.0667 16.7757 29.0317 16.9473 28.9618C17.1189 28.8919 17.2748 28.7884 17.4058 28.6573C17.5368 28.5263 17.6403 28.3704 17.7103 28.1988C17.7802 28.0272 17.8151 27.8434 17.813 27.6581V21.5635" stroke="white" stroke-width="1.5" stroke-miterlimit="10" stroke-linecap="round"/>
<path d="M10.7231 16.0557C10.6724 16.2339 10.5866 16.4002 10.4708 16.5448C10.3549 16.6894 10.2113 16.8094 10.0484 16.8977C9.88553 16.986 9.70663 17.0409 9.52223 17.0591C9.33783 17.0773 9.15165 17.0585 8.97464 17.0037C8.79642 16.953 8.63012 16.8673 8.48554 16.7514C8.34096 16.6355 8.221 16.4919 8.13272 16.329C8.04445 16.1661 7.98964 15.9872 7.97151 15.8028C7.95338 15.6184 7.97231 15.4322 8.02718 15.2553L9.49202 10.317C9.65355 9.77411 9.98615 9.29793 10.4403 8.95943C10.8944 8.62092 11.4457 8.43819 12.0121 8.43848H17.9887C18.5552 8.4384 19.1065 8.62135 19.5605 8.96007C20.0145 9.2988 20.347 9.77516 20.5082 10.3182L21.9731 15.2564C22.0279 15.4334 22.0469 15.6196 22.0287 15.804C22.0106 15.9884 21.9558 16.1673 21.8675 16.3302C21.7793 16.4931 21.6593 16.6367 21.5147 16.7526C21.3701 16.8684 21.2038 16.9542 21.0256 17.0049V17.0049C20.8487 17.0591 20.6628 17.0775 20.4788 17.0589C20.2947 17.0404 20.1162 16.9853 19.9537 16.8969C19.7912 16.8085 19.648 16.6886 19.5324 16.5441C19.4169 16.3997 19.3313 16.2336 19.2807 16.0557" stroke="white" stroke-width="1.5" stroke-miterlimit="10" stroke-linecap="round"/>
<path d="M15.0017 5.62747C16.2971 5.62747 17.3472 4.57737 17.3472 3.282C17.3472 1.98663 16.2971 0.936523 15.0017 0.936523C13.7064 0.936523 12.6562 1.98663 12.6562 3.282C12.6562 4.57737 13.7064 5.62747 15.0017 5.62747Z" stroke="white" stroke-width="1.5" stroke-miterlimit="10" stroke-linecap="round"/>
<path d="M12.1899 11.251L9.37695 20.6273H20.6286L17.8157 11.251" stroke="white" stroke-width="1.5" stroke-linecap="round" stroke-linejoin="round"/>
</svg>
