<svg width="30" height="30" viewBox="0 0 30 30" fill="none" xmlns="http://www.w3.org/2000/svg">
<path d="M12.1866 12.1885V27.6572C12.1845 27.8425 12.2194 28.0263 12.2893 28.1979C12.3593 28.3694 12.4628 28.5253 12.5938 28.6563C12.7248 28.7873 12.8806 28.8908 13.0522 28.9608C13.2238 29.0307 13.4076 29.0656 13.5929 29.0635V29.0635C13.7781 29.0656 13.9619 29.0307 14.1335 28.9608C14.3051 28.8908 14.461 28.7873 14.592 28.6563C14.723 28.5253 14.8265 28.3694 14.8964 28.1979C14.9663 28.0263 15.0012 27.8425 14.9991 27.6572" stroke="white" stroke-width="1.5" stroke-miterlimit="10" stroke-linecap="round"/>
<path d="M15.0001 19.6885V27.6572C14.998 27.8425 15.0329 28.0263 15.1028 28.1979C15.1727 28.3694 15.2762 28.5253 15.4072 28.6563C15.5383 28.7873 15.6941 28.8908 15.8657 28.9608C16.0373 29.0307 16.2211 29.0656 16.4063 29.0635C16.5916 29.0656 16.7754 29.0307 16.947 28.9608C17.1186 28.8908 17.2744 28.7873 17.4054 28.6563C17.5364 28.5253 17.6399 28.3694 17.7099 28.1979C17.7798 28.0263 17.8147 27.8425 17.8126 27.6572V12.1885" stroke="white" stroke-width="1.5" stroke-miterlimit="10" stroke-linecap="round"/>
<path d="M12.187 11.2514V16.4084C12.1892 16.5937 12.1543 16.7775 12.0844 16.9492C12.0145 17.1208 11.911 17.2767 11.78 17.4078C11.6489 17.5388 11.493 17.6423 11.3214 17.7122C11.1498 17.7821 10.9659 17.817 10.7806 17.8148V17.8148C10.5953 17.817 10.4114 17.7821 10.2398 17.7122C10.0681 17.6423 9.9122 17.5388 9.78116 17.4078C9.65012 17.2767 9.5466 17.1208 9.4767 16.9492C9.4068 16.7775 9.37192 16.5937 9.37412 16.4084V11.2514C9.37412 10.5054 9.67048 9.78988 10.198 9.26236C10.7255 8.73483 11.441 8.43848 12.187 8.43848H17.8128C18.5589 8.43848 19.2743 8.73483 19.8019 9.26236C20.3294 9.78988 20.6257 10.5054 20.6257 11.2514V16.4084C20.6279 16.5937 20.5931 16.7775 20.5232 16.9492C20.4533 17.1208 20.3497 17.2767 20.2187 17.4078C20.0877 17.5388 19.9317 17.6423 19.7601 17.7122C19.5885 17.7821 19.4046 17.817 19.2193 17.8148V17.8148C19.034 17.817 18.8501 17.7821 18.6785 17.7122C18.5068 17.6423 18.3509 17.5388 18.2199 17.4078C18.0888 17.2767 17.9853 17.1208 17.9154 16.9492C17.8455 16.7775 17.8106 16.5937 17.8128 16.4084V11.2514" stroke="white" stroke-width="1.5" stroke-miterlimit="10" stroke-linecap="round"/>
<path d="M15.0017 5.62943C16.2971 5.62943 17.3472 4.57932 17.3472 3.28395C17.3472 1.98858 16.2971 0.938477 15.0017 0.938477C13.7064 0.938477 12.6562 1.98858 12.6562 3.28395C12.6562 4.57932 13.7064 5.62943 15.0017 5.62943Z" stroke="white" stroke-width="1.5" stroke-miterlimit="10" stroke-linecap="round"/>
</svg>
