<svg width="82" height="82" viewBox="0 0 82 82" fill="none" xmlns="http://www.w3.org/2000/svg">
<path d="M34.1665 51.25L34.1665 41" stroke="#9C0A35" stroke-width="5" stroke-linecap="round"/>
<path d="M47.8335 51.25L47.8335 41" stroke="#9C0A35" stroke-width="5" stroke-linecap="round"/>
<path d="M10.25 23.917H71.75H65.5C63.6144 23.917 62.6716 23.917 62.0858 24.5028C61.5 25.0886 61.5 26.0314 61.5 27.917V64.3337C61.5 66.2193 61.5 67.1621 60.9142 67.7479C60.3284 68.3337 59.3856 68.3337 57.5 68.3337H24.5C22.6144 68.3337 21.6716 68.3337 21.0858 67.7479C20.5 67.1621 20.5 66.2193 20.5 64.3337V27.917C20.5 26.0314 20.5 25.0886 19.9142 24.5028C19.3284 23.917 18.3856 23.917 16.5 23.917H10.25Z" stroke="#9C0A35" stroke-width="5" stroke-linecap="round"/>
<path d="M34.3997 11.5162C34.789 11.1529 35.6469 10.832 36.8403 10.603C38.0337 10.3741 39.4959 10.25 41.0002 10.25C42.5044 10.25 43.9666 10.3741 45.16 10.603C46.3534 10.832 47.2113 11.1529 47.6007 11.5162" stroke="#9C0A35" stroke-width="5" stroke-linecap="round"/>
</svg>
